<svg width="28" height="29" viewBox="0 0 28 29" fill="none" xmlns="http://www.w3.org/2000/svg">
<path d="M23.3334 9.96249L16.3334 3.82582C15.6917 3.25188 14.861 2.93457 14.0001 2.93457C13.1392 2.93457 12.3085 3.25188 11.6668 3.82582L4.66678 9.96249C4.29621 10.2939 4.00049 10.7005 3.79933 11.1551C3.59816 11.6097 3.49616 12.102 3.50011 12.5992V22.7958C3.50011 23.7241 3.86886 24.6143 4.52524 25.2707C5.18161 25.9271 6.07185 26.2958 7.00011 26.2958H21.0001C21.9284 26.2958 22.8186 25.9271 23.475 25.2707C24.1314 24.6143 24.5001 23.7241 24.5001 22.7958V12.5875C24.5024 12.0923 24.3996 11.6023 24.1985 11.1498C23.9974 10.6973 23.7025 10.2926 23.3334 9.96249ZM16.3334 23.9625H11.6668V18.1292C11.6668 17.8197 11.7897 17.523 12.0085 17.3042C12.2273 17.0854 12.524 16.9625 12.8334 16.9625H15.1668C15.4762 16.9625 15.7729 17.0854 15.9917 17.3042C16.2105 17.523 16.3334 17.8197 16.3334 18.1292V23.9625ZM22.1668 22.7958C22.1668 23.1052 22.0439 23.402 21.8251 23.6208C21.6063 23.8396 21.3095 23.9625 21.0001 23.9625H18.6668V18.1292C18.6668 17.2009 18.298 16.3107 17.6416 15.6543C16.9853 14.9979 16.095 14.6292 15.1668 14.6292H12.8334C11.9052 14.6292 11.0149 14.9979 10.3586 15.6543C9.70219 16.3107 9.33344 17.2009 9.33344 18.1292V23.9625H7.00011C6.69069 23.9625 6.39394 23.8396 6.17515 23.6208C5.95636 23.402 5.83344 23.1052 5.83344 22.7958V12.5875C5.83365 12.4218 5.86914 12.2581 5.93753 12.1073C6.00592 11.9564 6.10566 11.8218 6.23011 11.7125L13.2301 5.58749C13.443 5.40045 13.7167 5.2973 14.0001 5.2973C14.2835 5.2973 14.5572 5.40045 14.7701 5.58749L21.7701 11.7125C21.8946 11.8218 21.9943 11.9564 22.0627 12.1073C22.1311 12.2581 22.1666 12.4218 22.1668 12.5875V22.7958Z" fill="#303972"/>
</svg>
